HIERARCHY
ROOT Hips
{
    OFFSET 0.000000 0.000000 0.000000
    CHANNELS 6 Xposition Yposition Zposition Zrotation Xrotation Yrotation
    JOINT Chest
    {
        OFFSET -0.000000 0.071157 0.000000
        CHANNELS 3 Zrotation Xrotation Yrotation
        JOINT Chest2
        {
            OFFSET -0.000000 0.200496 0.000000
            CHANNELS 3 Zrotation Xrotation Yrotation
            JOINT Neck
            {
                OFFSET -0.000000 0.217851 0.000000
                CHANNELS 3 Zrotation Xrotation Yrotation
                JOINT Head
                {
                    OFFSET -0.000000 0.094152 0.017355
                    CHANNELS 3 Zrotation Xrotation Yrotation
                    End Site
                    {
                        OFFSET -0.000000 0.173553 0.000000
                    }
                }
            }
            JOINT LeftCollar
            {
                OFFSET 0.034349 0.184703 -0.001098
                CHANNELS 3 Zrotation Xrotation Yrotation
                JOINT LeftShoulder
                {
                    OFFSET 0.100089 0.000000 0.000000
                    CHANNELS 3 Zrotation Xrotation Yrotation
                    JOINT LeftElbow
                    {
                        OFFSET 0.265196 0.000000 0.000000
                        CHANNELS 3 Zrotation Xrotation Yrotation
                        JOINT LeftWrist
                        {
                            OFFSET 0.220131 0.000000 0.000000
                            CHANNELS 3 Zrotation Xrotation Yrotation
                            End Site
                            {
                                OFFSET 0.000000 -0.130165 0.000000
                            }
                        }
                    }
                }
            }
            JOINT RightCollar
            {
                OFFSET -0.035053 0.184703 -0.001098
                CHANNELS 3 Zrotation Xrotation Yrotation
                JOINT RightShoulder
                {
                    OFFSET -0.100089 0.000000 0.000000
                    CHANNELS 3 Zrotation Xrotation Yrotation
                    JOINT RightElbow
                    {
                        OFFSET -0.265196 0.000000 0.000000
                        CHANNELS 3 Zrotation Xrotation Yrotation
                        JOINT RightWrist
                        {
                            OFFSET -0.220131 0.000000 0.000000
                            CHANNELS 3 Zrotation Xrotation Yrotation
                            End Site
                            {
                                OFFSET -0.000000 -0.130165 0.000000
                            }
                        }
                    }
                }
            }
        }
    }
    JOINT LeftHip
    {
        OFFSET 0.086776 0.000000 0.000000
        CHANNELS 3 Zrotation Xrotation Yrotation
        JOINT LeftKnee
        {
            OFFSET -0.000000 -0.397777 0.000000
            CHANNELS 3 Zrotation Xrotation Yrotation
            JOINT LeftAnkle
            {
                OFFSET -0.000000 -0.331973 0.000000
                CHANNELS 3 Zrotation Xrotation Yrotation
                JOINT LeftToe
                {
                    OFFSET -0.000000 -0.056405 0.130165
                    CHANNELS 3 Zrotation Xrotation Yrotation
                    End Site
                    {
                        OFFSET -0.000000 0.000000 0.034711
                    }
                }
            }
        }
    }
    JOINT RightHip
    {
        OFFSET -0.086776 0.000000 0.000000
        CHANNELS 3 Zrotation Xrotation Yrotation
        JOINT RightKnee
        {
            OFFSET -0.000000 -0.397777 0.000000
            CHANNELS 3 Zrotation Xrotation Yrotation
            JOINT RightAnkle
            {
                OFFSET -0.000000 -0.331973 0.000000
                CHANNELS 3 Zrotation Xrotation Yrotation
                JOINT RightToe
                {
                    OFFSET -0.000000 -0.056405 0.130165
                    CHANNELS 3 Zrotation Xrotation Yrotation
                    End Site
                    {
                        OFFSET -0.000000 0.000000 0.034711
                    }
                }
            }
        }
    }
}
MOTION
Frames:    4
Frame Time:    0.016667
-0.380068    0.818438    1.331975    -1.258227    -1.745486    150.302017    0.239812    -3.173240    -1.300864    0.654578    -0.788267    -0.432031    -3.255923    12.073238    4.142776    0.880545    -7.222605    3.443821    10.171125    1.586852    1.630407    -20.329399    2.760501    4.152961    0.899631    -7.121753    3.007769    86.798126    -2.310592    7.080607    -16.342476    2.480796    -1.175125    23.810686    4.217668    2.888501    -0.822371    -0.848514    -2.089972    -84.490311    4.664043    -1.088130    2.006176    -0.046522    0.258471    -4.357234    10.827622    -2.246397    1.482176    -10.933322    8.192657    0.000000    0.000000    0.000000    1.348413    -3.544796    -1.835828    -0.152878    11.283353    -0.428355    -1.628368    -8.496094    -4.030073    0.000000    0.000000    0.000000    
-0.379981    0.818337    1.331891    -1.255333    -1.700832    150.318436    0.196887    -3.178848    -1.335700    0.664732    -0.727076    -0.443581    -3.239276    12.079659    4.156686    0.865087    -7.181355    3.462700    10.155055    1.591951    1.670879    -20.255493    2.735603    4.100690    0.873382    -7.138291    2.982017    87.035019    -2.269897    7.102093    -16.333748    2.466212    -1.235406    23.772888    4.217306    2.992390    -0.821773    -0.814253    -2.138479    -84.659058    4.741000    -1.050883    1.996819    -0.003647    0.237467    -4.387565    10.844273    -2.245976    1.491403    -10.968148    8.237544    0.000000    0.000000    0.000000    1.325915    -3.480404    -1.844917    -0.147969    11.263085    -0.399682    -1.628083    -8.556210    -4.053050    0.000000    0.000000    0.000000    
-0.379968    0.818245    1.331992    -1.244207    -1.689503    150.300873    0.194527    -3.169951    -1.327925    0.644343    -0.706173    -0.441158    -3.172495    12.136855    4.086565    0.814989    -7.228795    3.408331    10.033351    1.755508    1.692368    -20.014784    2.510648    3.999398    0.833569    -7.102892    2.990169    86.988609    -2.250649    7.065322    -16.362783    2.375411    -1.276455    23.814825    4.264364    3.030539    -0.861495    -0.728373    -2.178385    -84.593102    4.821177    -0.972602    2.121167    -0.047461    -0.036858    -4.722128    11.000710    -2.223433    1.688457    -11.063294    8.640561    0.000000    0.000000    0.000000    1.359824    -3.489329    -1.902835    -0.228704    11.304150    -0.375596    -1.607895    -8.557627    -3.975174    0.000000    0.000000    0.000000    
-0.379923    0.818209    1.332064    -1.229928    -1.681653    150.257538    0.176525    -3.152632    -1.323065    0.661838    -0.698926    -0.439328    -3.173275    12.155058    4.091148    0.819834    -7.227379    3.412042    10.166567    1.580060    1.669080    -20.126707    2.648887    4.065321    0.874366    -7.084480    3.001004    86.939903    -2.273061    7.046502    -16.358530    2.380138    -1.272489    23.745588    4.070224    3.080950    -0.799527    -0.591970    -2.201118    -84.595757    4.805555    -0.834293    2.130835    -0.036207    -0.074455    -4.728086    11.011977    -2.193946    1.770090    -11.016952    8.796844    0.000000    0.000000    0.000000    1.375107    -3.489371    -1.925456    -0.240044    11.313685    -0.324246    -1.602882    -8.581154    -3.958339    0.000000    0.000000    0.000000    
